<svg id="Capa_1" enable-background="new 0 0 512 512" height="512" viewBox="0 0 512 512" style="fill: #FCE373" width="512" xmlns="http://www.w3.org/2000/svg"><g><path d="m256 122c-74.439 0-135 60.561-135 135v78.261c0 31.286 25.453 56.739 56.739 56.739h156.521c31.287 0 56.74-25.453 56.74-56.739v-78.261c0-74.439-60.561-135-135-135zm105 213.261c0 14.744-11.995 26.739-26.739 26.739h-156.522c-14.744 0-26.739-11.995-26.739-26.739v-78.261c0-57.897 47.103-105 105-105s105 47.103 105 105z"/><path d="m482 222.271v-134.851c17.459-6.192 30-22.865 30-42.42 0-24.813-20.187-45-45-45s-45 20.187-45 45c0 19.555 12.541 36.228 30 42.42v124.792c-1.652-.126-3.316-.211-5-.211h-1.251c-20.369-85.901-97.71-150.001-189.749-150.001s-169.38 64.1-189.749 150h-1.251c-35.841 0-65 29.159-65 65 0 34.497 27.016 62.79 61 64.865v80.42c-22.468 2.496-40 21.593-40 44.715 0 24.813 20.187 45 45 45h380c24.813 0 45-20.187 45-45 0-23.122-17.532-42.219-40-44.716v-80.42c33.984-2.075 61-30.368 61-64.865 0-22.959-11.977-43.161-30-54.728zm-15-192.271c8.271 0 15 6.729 15 15s-6.729 15-15 15-15-6.729-15-15 6.729-15 15-15zm-376 227c0-90.981 74.019-165 165-165s165 74.019 165 165v165h-330zm-61 20c0-18.138 13.87-33.095 31.56-34.829-.37 4.895-.56 9.84-.56 14.829v54.765c-17.421-1.993-31-16.819-31-34.765zm431 190c0 8.271-6.729 15-15 15h-380c-8.271 0-15-6.729-15-15s6.729-15 15-15h380c8.271 0 15 6.729 15 15zm-10-155.235v-54.765c0-4.989-.19-9.934-.56-14.829 17.69 1.734 31.56 16.691 31.56 34.829 0 17.946-13.579 32.772-31 34.765z"/></g></svg>